<svg width="319" height="184" viewBox="0 0 319 184" fill="none" xmlns="http://www.w3.org/2000/svg">
<path d="M0.0899658 44.51C26.29 35.71 50.42 38.99 72.11 56.51C110.75 14.55 168.65 0.33999 236.17 -0.0100098C118.13 56.51 94.66 122.36 205.66 183.55C12.09 192.55 76.12 60.01 0.0899658 44.5V44.51Z" fill="white"/>
<path d="M315.06 81.35H267.34C265.23 81.35 263.51 79.64 263.51 77.52V29.8C263.51 27.69 261.8 25.97 259.68 25.97H220.06C217.95 25.97 216.23 27.68 216.23 29.8V77.52C216.23 79.63 214.52 81.35 212.4 81.35H164.68C162.57 81.35 160.85 83.06 160.85 85.18V124.8C160.85 126.91 162.56 128.63 164.68 128.63H212.4C214.51 128.63 216.23 130.34 216.23 132.46V180.18C216.23 182.29 217.94 184.01 220.06 184.01H259.68C261.79 184.01 263.51 182.3 263.51 180.18V132.46C263.51 130.35 265.22 128.63 267.34 128.63H315.06C317.17 128.63 318.89 126.92 318.89 124.8V85.18C318.89 83.07 317.18 81.35 315.06 81.35Z" fill="white"/>
</svg>
